<svg xmlns="http://www.w3.org/2000/svg" viewBox="0 0 91.1 11.17"><title>Asset 9</title><g id="Layer_2" data-name="Layer 2"><g id="Layer_1-2" data-name="Layer 1"><path d="M3.31.4c1.54-.08,2.32,0,2.92.75a4.33,4.33,0,0,1,.6,1.52l-1.22.66S5.26,2.21,4.46,2.06c-1.12-.23-2,1.88-2,4,0,.71.08,2.41,1.59,2.69C5,8.87,5.72,7.62,5.72,7.62l1.44.93a3.86,3.86,0,0,1-1.65,1.87,4.72,4.72,0,0,1-3.68,0A4.65,4.65,0,0,1,0,6.42C.08,2.73,1.18.69,3.31.4Z"/><polygon points="15.55 0.93 12.96 0.87 12.96 4.62 11.13 4.63 11.08 0.89 8.69 0.72 8.18 10.44 10.53 10.47 10.87 6.16 12.91 6.19 12.77 10.18 15.47 9.98 15.55 0.93"/><path d="M17.85.17s4.46,0,6.11,0c0,0,0,1.72,0,1.81l-3.68.21-.14,2.1,3.44-.08,0,1.65L20,6l-.14,1.62,3.61.1-.06,2.33-6.19-.33Z"/><path d="M25.77,1.08S30.36,1,32,1l-.14,2-3.69,0L28,5.22l3.44-.08,0,1.65-3.57.14-.14,1.62,3.61.1L31.31,11l-6.19-.33Z"/><path d="M78.93,1.16l2.51.06L81,10,78.58,10Z"/><path d="M70.79,1.58l2.65,0-.65,7.16L77,8.64l-.18,2.53-6.73-.08Z"/><path d="M91.1,1l-2.52.09S88,6.75,88,6.86c-.1-.08-2-5.47-2-5.47l-2.46,0L83,10.95l2.37,0,.13-5C85.54,6,88,11,88,11l1.71.05Z"/><polygon points="48.6 1.49 46.28 1.3 46.13 5.02 44.36 5.04 44.35 1.24 41.98 1.12 41.58 10.94 44.04 10.87 44.24 6.66 46.09 6.61 45.85 10.4 48.46 10.38 48.6 1.49"/><path d="M50.76.19s4.54,0,6.18.06l-.09,2H53.17L53,4.33l3.44-.08,0,1.65L52.9,6l-.14,1.62,3.61.1-.06,2.33-6.19-.33Z"/><path d="M59.08,1.11l6.15.06s-.06,1.68-.06,1.78l-3.68.21-.14,2.1,3.44-.08V7H61.22l-.14,1.62,3.61.1L64.63,11l-6.19-.33Z"/><path d="M36.81,0c1.54-.08,2.32,0,2.92.75a4.33,4.33,0,0,1,.6,1.52l-1.22.66S38.76,1.83,38,1.68c-1.12-.23-2,1.88-2,4,0,.71.08,2.41,1.59,2.69.87.13,1.62-1.12,1.62-1.12l1.44.93A3.86,3.86,0,0,1,39,10.05a4.72,4.72,0,0,1-3.68,0,4.65,4.65,0,0,1-1.83-4C33.58,2.36,34.69.32,36.81,0Z"/></g></g></svg>