<?xml version="1.0" encoding="UTF-8"?>
<svg width="208px" height="135px" viewBox="0 0 208 135" version="1.1" xmlns="http://www.w3.org/2000/svg" xmlns:xlink="http://www.w3.org/1999/xlink">
    <!-- Generator: Sketch 45.2 (43514) - http://www.bohemiancoding.com/sketch -->
    <title>Group 3</title>
    <desc>Created with Sketch.</desc>
    <defs></defs>
    <g id="Page-1" stroke="none" stroke-width="1" fill="none" fill-rule="evenodd" stroke-linecap="round">
        <g id="Desktop-HD" transform="translate(-455.000000, -671.000000)">
            <g id="Group-3" transform="translate(458.000000, 674.000000)">
                <g id="Group-2" transform="translate(0.000000, 11.000000)" stroke-width="7">
                    <g id="Group" transform="translate(6.000000, 0.000000)" stroke="#3F5666">
                        <path d="M102.57818,54.105412 C119.077564,60.8823381 129.414489,58.9208609 133.588953,48.2209803 C139.850649,32.1711594 130.769824,20.3887033 120.587632,28.128658 C110.40544,35.8686126 106.670268,82.756942 122.801478,82.1903198 C133.361668,81.8193843 141.326277,71.762699 146.695306,52.0202639 L146.695306,52.0202639 C146.840238,51.487335 147.389753,51.1728014 147.922682,51.3177334 C147.960286,51.3279599 147.997259,51.3403757 148.033414,51.3549174 C158.952637,55.7467009 166.302326,54.7020552 170.082483,48.2209803 C175.931741,38.1924344 174.73076,22.6260388 163.004718,23.0223975 C151.278675,23.4187562 140.836704,54.3985869 151.582693,70.5684306 C158.746686,81.3483264 168.060583,80.5932578 179.524383,68.3032248" id="Path-2"></path>
                        <path d="M38.8448701,37.5078349 C40.9416462,22.0465465 36.8932203,14.0028244 26.6995923,13.3766688 C11.4091504,12.4374353 2.92729259,33.8542822 1.10630225,50.0126247 C-0.714688084,66.1709671 5.20786133,94.1095964 21.3950133,94.6283869 C37.5821654,95.1471773 51.7446763,62.0454646 51.9327994,62.1775769 C52.1209224,62.3096892 87.8692241,4.22145515 64.408694,0.440621251 C49.647927,-1.93818299 48.817807,34.280828 61.9183341,109.097654 L61.9183341,109.097654 C62.0135906,109.641662 62.5318169,110.005447 63.0758248,109.91019 C63.5615377,109.825141 63.912753,109.398729 63.9031583,108.905719 C63.1601833,70.7288476 68.6862775,52.6526282 80.4814409,54.6770609 C100.210158,58.0631488 77.3903267,110.281207 87.8692241,114.537463 C94.8551557,117.374967 99.6696007,108.617552 102.312559,88.26522" id="Path"></path>
                    </g>
                    <g id="Group-Copy" transform="translate(0.000000, 2.000000)" stroke="#FFE4DF">
                        <path d="M103.57818,54.105412 C120.077564,60.8823381 130.414489,58.9208609 134.588953,48.2209803 C140.850649,32.1711594 131.769824,20.3887033 121.587632,28.128658 C111.40544,35.8686126 107.670268,82.756942 123.801478,82.1903198 C134.361668,81.8193843 142.326277,71.762699 147.695306,52.0202639 L147.695306,52.0202639 C147.840238,51.487335 148.389753,51.1728014 148.922682,51.3177334 C148.960286,51.3279599 148.997259,51.3403757 149.033414,51.3549174 C159.952637,55.7467009 167.302326,54.7020552 171.082483,48.2209803 C176.931741,38.1924344 175.73076,22.6260388 164.004718,23.0223975 C152.278675,23.4187562 141.836704,54.3985869 152.582693,70.5684306 C159.746686,81.3483264 169.060583,80.5932578 180.524383,68.3032248" id="Path-2"></path>
                        <path d="M38.8448701,37.5078349 C40.9416462,22.0465465 36.8932203,14.0028244 26.6995923,13.3766688 C11.4091504,12.4374353 2.92729259,33.8542822 1.10630225,50.0126247 C-0.714688084,66.1709671 5.20786133,94.1095964 21.3950133,94.6283869 C37.5821654,95.1471773 51.7446763,62.0454646 51.9327994,62.1775769 C52.1209224,62.3096892 87.8692241,4.22145515 64.408694,0.440621251 C49.647927,-1.93818299 48.817807,34.280828 61.9183341,109.097654 L61.9183341,109.097654 C62.0135906,109.641662 62.5318169,110.005447 63.0758248,109.91019 C63.5615377,109.825141 63.912753,109.398729 63.9031583,108.905719 C63.1601833,70.7288476 68.6862775,52.6526282 80.4814409,54.6770609 C100.210158,58.0631488 77.3903267,110.281207 87.8692241,114.537463 C94.8551557,117.374967 99.6696007,108.617552 102.312559,88.26522" id="Path"></path>
                    </g>
                </g>
                <path d="M184,5.93259495 C187.422138,0.71729204 190.955363,-0.362350323 194.599676,2.69366786 C197.883334,5.4472517 195.339789,11.2962203 186.969039,20.2405738 L186.969039,20.2405738 C186.591659,20.6438139 186.612623,21.2766317 187.015863,21.6540119 C187.288892,21.9095322 187.681673,21.9913686 188.03403,21.8661488 L202.141475,16.8526868" id="Path-3" stroke="#3F5666" stroke-width="5"></path>
                <path d="M181,4.93259495 C184.422138,-0.28270796 187.955363,-1.36235032 191.599676,1.69366786 C194.883334,4.4472517 192.339789,10.2962203 183.969039,19.2405738 L183.969039,19.2405738 C183.591659,19.6438139 183.612623,20.2766317 184.015863,20.6540119 C184.288892,20.9095322 184.681673,20.9913686 185.03403,20.8661488 L199.141475,15.8526868" id="Path-3-Copy" stroke="#FFE4DF" stroke-width="5"></path>
            </g>
        </g>
    </g>
</svg>