<svg xmlns="http://www.w3.org/2000/svg" viewBox="0 0 2450.96 982.41"><defs><style>.cls-1,.cls-2{fill:none;stroke:#000;stroke-miterlimit:10;}.cls-1{stroke-width:12px;}.cls-2{stroke-width:12.97px;}</style></defs><title>Asset 9</title><g id="Layer_2" data-name="Layer 2"><g id="Layer_1-2" data-name="Layer 1"><path class="cls-1" d="M474.12,808.93s-13.2,16.46-20.77,24a215.19,215.19,0,1,1,0-304.33,223.46,223.46,0,0,1,40.07,54.61l68-41.08a285.79,285.79,0,0,0-51.5-70.1,295.19,295.19,0,1,0,0,417.46c18.38-18.38,46.74-60.63,46.74-60.63Z"/><path class="cls-1" d="M1127.66,676.24a216.82,216.82,0,0,1-5.7,49.48h81.58a298.87,298.87,0,0,0,4.12-49.48,295.3,295.3,0,0,0-577.73-86c-.48,1.58-6.34,20.72-6.79,22.31l.38,110.53,83,.76s-1.49-29.92-1.49-46c0-18,.81-31.48,0-49.5-.07-1.61-.5-7.78-.08-9.33a215.24,215.24,0,0,1,422.72,57.27Z"/><path class="cls-2" d="M623.54,723.08c-.15-237.84-.15-478.94,0-716.59l81.75,0c-.15,237.63-.15,478.71,0,716.52Z"/><path class="cls-1" d="M1737.88,809.36s-13.2,16.46-20.77,24a215.19,215.19,0,1,1,0-304.33,223.46,223.46,0,0,1,40.07,54.61l68-41.08a285.79,285.79,0,0,0-51.5-70.1,295.19,295.19,0,1,0,0,417.46c18.38-18.38,46.74-60.63,46.74-60.63Z"/><path class="cls-1" d="M1322.24,849.34a227.59,227.59,0,0,1-18.52-30.15c-13.33-27-14.57-34-14.57-34L1785.47,485s8.53,8,20,25.17c9.87,14.84,19.57,33.64,19.57,33.64Z"/><path class="cls-1" d="M2355.71,809.36s-13.2,16.46-20.77,24a215.19,215.19,0,1,1,0-304.33A223.46,223.46,0,0,1,2375,583.67l68-41.08a285.79,285.79,0,0,0-51.5-70.1,295.19,295.19,0,1,0,0,417.46c18.38-18.38,46.74-60.63,46.74-60.63Z"/><path class="cls-1" d="M1940.07,849.34a227.59,227.59,0,0,1-18.52-30.15c-13.33-27-14.57-34-14.57-34L2403.3,485s8.53,8,20,25.17c9.87,14.84,19.57,33.64,19.57,33.64Z"/></g></g></svg>