<svg xmlns="http://www.w3.org/2000/svg" viewBox="0 0 2341.61 983.93"><defs><style>.cls-1{fill:none;stroke:#000;stroke-miterlimit:10;stroke-width:12px;}</style></defs><title>Asset 8</title><g id="Layer_2" data-name="Layer 2"><g id="Layer_1-2" data-name="Layer 1"><path class="cls-1" d="M512.33,766.32c-4.74-2.83-9.6-5.38-14.54-7.78a215.3,215.3,0,1,1-44.44-239.92q5.46,5.46,10.47,11.24c21.9-15.4,43.74-30.9,65.74-46.16q-9.23-11.22-19.64-21.65A294.7,294.7,0,1,0,566,801.55C547.21,791.51,530.41,777.12,512.33,766.32Z"/><path class="cls-1" d="M1077.72,676.75a216.82,216.82,0,0,1-5.7,49.48h81.58a298.87,298.87,0,0,0,4.12-49.48,295.19,295.19,0,1,0-590.38,0,299,299,0,0,0,3.77,47.33h81.42a217,217,0,0,1-5.19-47.33,215.19,215.19,0,0,1,430.38,0Z"/><path class="cls-1" d="M567.58,722.6c-.13-237.84-.13-478.94,0-716.59l70,0c-.13,237.63-.13,478.71,0,716.52Z"/><path class="cls-1" d="M1661.94,810.88a218.28,218.28,0,0,1-20.77,24,215.19,215.19,0,1,1,0-304.33,223.46,223.46,0,0,1,40.07,54.61l68-41.08a285.79,285.79,0,0,0-51.5-70.1,295.19,295.19,0,1,0,0,417.46,296.87,296.87,0,0,0,46.74-60.63C1732,830.33,1676.22,818.23,1661.94,810.88Z"/><path class="cls-1" d="M1283.23,826.35l-36.28-59.86,462.58-280s8.53,8,20,25.17c9.87,14.84,19.57,33.64,19.57,33.64Z"/><path class="cls-1" d="M2246.36,783.9a218.28,218.28,0,0,1-20.77,24,215.19,215.19,0,1,1,0-304.33,223.46,223.46,0,0,1,40.07,54.61l68-41.08a285.79,285.79,0,0,0-51.5-70.1,295.19,295.19,0,1,0,0,417.46,296.87,296.87,0,0,0,46.74-60.63C2316.4,803.36,2260.64,791.26,2246.36,783.9Z"/><path class="cls-1" d="M1867.65,799.38l-36.28-59.86,462.58-280s8.53,8,20,25.17c9.87,14.84,19.57,33.64,19.57,33.64Z"/></g></g></svg>