<svg id="Layer_1" data-name="Layer 1" xmlns="http://www.w3.org/2000/svg" viewBox="0 0 3168.51 1273.97"><defs><style>.cls-1{fill:none;stroke:#000;stroke-miterlimit:10;stroke-width:24px;}</style></defs><title>logo_new</title><g id="Layer_2" data-name="Layer 2"><g id="Layer_1-2" data-name="Layer 1-2"><path class="cls-1" d="M1247.9,1731.15s-17,21.21-26.77,30.93c-108.3,108.3-283.89,108.3-392.19,0s-108.3-283.89,0-392.19,283.89-108.3,392.19,0a288,288,0,0,1,51.64,70.38l87.63-52.94A368.31,368.31,0,0,0,1294,1297c-148.56-148.56-389.43-148.57-538,0s-148.57,389.43,0,538,389.43,148.57,538,0h0c23.69-23.69,60.24-78.14,60.24-78.14Z" transform="translate(-632.62 -685.02)"/><path class="cls-1" d="M2090.14,1560.15a279.43,279.43,0,0,1-7.35,63.77h105.14a385.17,385.17,0,0,0,5.31-63.77c-.16-210.18-170.68-380.43-380.86-380.27a380.56,380.56,0,0,0-363.68,269.44c-.62,2-8.17,26.7-8.75,28.75l.49,142.44,107,1s-1.92-38.56-1.92-59.28c0-23.2,1-40.57,0-63.79-.09-2.07-.64-10-.1-12,40.76-147.67,193.52-234.34,341.2-193.58a277.39,277.39,0,0,1,203.58,267.38Z" transform="translate(-632.62 -685.02)"/><path class="cls-1" d="M1440.46,1620.51c-.19-306.51-.19-617.23,0-923.5h105.35c-.19,306.24-.19,616.93,0,923.41Z" transform="translate(-632.62 -685.02)"/><path class="cls-1" d="M2876.55,1731.71s-17,21.21-26.77,30.93c-108.3,108.3-283.89,108.3-392.19,0s-108.3-283.89,0-392.19,283.89-108.3,392.19,0a288,288,0,0,1,51.64,70.38l87.63-52.94a368.31,368.31,0,0,0-66.37-90.34c-148.56-148.56-389.43-148.57-538,0s-148.57,389.43,0,538,389.43,148.57,538,0h0c23.69-23.69,60.24-78.14,60.24-78.14Z" transform="translate(-632.62 -685.02)"/><path class="cls-1" d="M2340.9,1783.23a293.31,293.31,0,0,1-23.87-38.86c-17.18-34.8-18.78-43.82-18.78-43.82l639.63-386.87s11,10.31,25.77,32.44c12.72,19.12,25.22,43.35,25.22,43.35Z" transform="translate(-632.62 -685.02)"/><path class="cls-1" d="M3672.77,1731.71s-17,21.21-26.77,30.93c-108.3,108.3-283.89,108.3-392.19,0s-108.3-283.89,0-392.19,283.89-108.3,392.19,0a288,288,0,0,1,51.63,70.42l87.63-52.94a368.31,368.31,0,0,0-66.37-90.34c-148.56-148.56-389.43-148.57-538,0s-148.57,389.43,0,538,389.43,148.57,538,0h0c23.69-23.69,60.24-78.14,60.24-78.14Z" transform="translate(-632.62 -685.02)"/><path class="cls-1" d="M3137.12,1783.23a293.31,293.31,0,0,1-23.87-38.86c-17.18-34.8-18.78-43.82-18.78-43.82l639.63-386.87s11,10.31,25.77,32.44c12.72,19.12,25.22,43.35,25.22,43.35Z" transform="translate(-632.62 -685.02)"/></g></g></svg>