<svg xmlns="http://www.w3.org/2000/svg" viewBox="0 0 1481.42 827.43"><title>Asset 2</title><g id="Layer_2" data-name="Layer 2"><g id="Layer_1-2" data-name="Layer 1"><g id="chee"><path d="M1468.55,733.14c-7.34,11.19-17.4,20.36-28.22,28.23a183.89,183.89,0,0,1-253.41-36.05c-45,42.89-93.66,87.67-154.75,99.32C972,836.1,907.83,811.41,866,766.72s-62.12-107.16-61.27-168.36S826.39,477.3,857.86,424.8c20.28-33.84,48.06-67,86.49-75.94,36.36-8.42,77-16.27,109.08,2.73,19,11.26,31.91,30.34,43.34,49.26,14.83,24.53,28.77,51.73,26.46,80.31-3.26,40.24-37.86,71.09-74.15,88.76-34.58,16.84-75.21,25.78-111.64,13.44-7.76-2.63-16.39,3.33-19.34,11s-1.58,16.23.56,24.14a134.73,134.73,0,0,0,51.58,74c9.63,6.83,20.38,13.49,32.18,13.88,59.36,1.92,113.17-45.48,133-62,9.93-7.28,23.87-15.38,22.8-26.83a326.92,326.92,0,0,1,36.66-182.78c18.61-35,45.11-67.6,81.39-83.48s83.48-11,109.26,19.08c24.92,29.08,47.67,62.89,50.12,101.11,2.59,40.45-19.52,80.67-53.15,103.3s-77.25,28.3-116.64,18.76c-6.39,26.48,3.94,56.26,25.37,73.08s52.8,19.81,77,7.32c14.82-7.64,26.48-20.17,40.29-29.52s32-15.4,47-8.19c10.26,4.92,17,15.16,21,25.83a80.72,80.72,0,0,1-8,71.16M1263.36,509.61a11.3,11.3,0,0,0,4,4.21,50.62,50.62,0,0,0,76.13-21.89c5.34-12.9-1.59-27.31-8.34-39.52-3.92-7.09-9.34-15.12-17.44-15.16-5.95,0-10.86,4.41-15,8.63-15.86,16-31,33.62-38.66,54.83-1,2.87-1.91,6.11-.64,8.89m-255.2-14.45c13.73-10.53,17-30.47,13.06-47.32-1.19-5.11-3.08-10.34-7-13.81-9.27-8.18-23.87-2.66-34,4.38a153.9,153.9,0,0,0-35.75,34.52c-4.42,5.93-7.39,16.21-.61,19.15,10.36,4.49,20.95,8.87,32.15,10.31s23.25-.36,32.21-7.23m290.06-141.87a63.82,63.82,0,0,0-48.92,29.92l48.92-29.92m-348.82,2.4c-7.39-1.31-23.76,6.82-29,12.19-3,2.32-20.71,26.85-19.55,27.91,4.2-.14,13.93-12.12,25.12-22,9.82-8.65,21.33-15.1,23.42-18.14M1227.65,401l3.45,2.47a9,9,0,0,0,3.22-5.33,4,4,0,0,0-5.75,2.18Z"/><path d="M92.78,649.15c-14.6-73.51-10.4-151.79,19.32-220.59a78.15,78.15,0,0,0-73.15,13.82c-9.19,7.64-20.31,18.22-31.08,13-8.68-4.17-9.92-16.91-5-25.18s13.94-13.09,22.49-17.51c20.67-10.69,93.19-36.56,125-46.7,23.54-22.15,56.86-45.28,82.36-51.7,56.32-7.55,78.13-2.47,105.1,13.87,22.89,17.16,40.08,41.68,43.31,67.84s-9,51.36-42.1,68.64a225.83,225.83,0,0,1-120.75,9.37c-9.37-1.86-15.77,9.12-18.47,18.28a246.27,246.27,0,0,0,5.34,154.05c9.95,26.78,26.55,53.49,53.14,63.94,33.55,13.18,76.21,3.71,108.43-12.46,34.12-17.12,65.6-44.28,79.23-79.94,7-18.27,6.8-38.39,6.52-58l-5.6-392.88c-.53-37.09-.8-75.52,14.2-109.45S510.87-4.46,547.62.59c11.53,1.58,22.45,6.26,32.5,12.12,51.59,30.07,80.06,91.33,80.85,151s-22.86,117.61-55.79,167.42c24.47-2.93,52.19-5.2,78.21,2.48,29,12.42,72.91,55,86.34,99s13.43,90.77,13.92,136.76c.5,46.2,1.79,93.37,17.75,136.74,3.42,9.28,14.2,18.71,23.67,21.56,11.42,3.44,18.87,9.79,20.11,21.93,1.39,13.63-3.45,32.67-10.75,44.26-5.76,9.13-12.86,17.75-22.25,23.08-27.78,15.78-63.29-2.82-83.91-27.24-38.77-45.92-49.15-109.28-50.9-169.36s3.51-121.09-10.13-179.63c-3.1-13.31-9-28.31-22.07-32.24-12.22-3.66-24.79,4.25-34.13,12.94a151.33,151.33,0,0,0-44.5,78.09c-4.87,22.38-4.56,45.52-4.22,68.42l3,205.89c.36,24.43-19.18,47-43.5,49.27-22.88,2.13-45.56-11.54-57.55-31.15s-14.21-44.21-9.69-66.8c-33.26,60.07-100.63,99.7-169.29,99.36S149.55,783.73,117.4,723.06c-12.2-23-19.55-48.34-24.63-73.9m182.1-261.5a10.91,10.91,0,0,0-3.68-3.59c-5-2.7-11,1.36-15,5.4a146.3,146.3,0,0,0-17.29,20.76,7,7,0,0,0-1.63,4c.06,1.64,1.22,3,2.43,4.11,8.44,7.67,22.67,7.81,31.26.32s10.39-21.61,3.94-31M540.57,108.93c-2.3-2.48-8-3.4-7.52-.06,9.42,15,19.13,30.78,20.08,48.44.6,11-2.27,22.38.88,33,2.25,7.56,7.47,14.21,8.36,22,.92,8.07-1.62,18.93,5.8,22.25a67.59,67.59,0,0,0-4.35-43.44c-2.52-5.47-1.46-11.82-1-17.83a86,86,0,0,0-22.28-64.38m-1.36,199c8.24-13.91,7.6-91.56,5.22-107.55s-6.55-32-5.1-48.08c.5-5.55-3.46-10.4-7.18-14.56-5,3-5,10.22-4.28,16.06,3.68,31.26,7.66,122.87,11.35,154.13m-416.27,97a24.53,24.53,0,0,0-29.41.48,22.23,22.23,0,0,0,14.11,1.83M694.08,684c.17,6.21.7,13.17,5.4,17.24a79.42,79.42,0,0,0-3-30.6c-4.3,2.54-5.28,9.27-1.89,12.93m-2.72-56c.78-2.85.28-7.31-2.65-6.94a27.56,27.56,0,0,0,2.26,22.55,13.51,13.51,0,0,0-.24-14.86M591.95,211.41c2.09-3.32-1.73-8.37-5.5-7.26-.9,2.56-1.76,5.56-.31,7.86s6.14,1.66,5.78-1m96.31,368.38c-.4,3.39-.13,7.71,3,9a24.71,24.71,0,0,0,.12-14.11,7.26,7.26,0,0,0-3.19,5.08m1.39-102.41-2.44-7.28a8.76,8.76,0,0,0-2.93,9.15,3.85,3.85,0,0,0,5.59-2.18M585.33,234.17c3.7.41,6-5.43,3.06-7.68a6.45,6.45,0,0,0-2.8,6.77M692.52,655.73c-.43,1.88,3.08,2.28,3.88.52s-.24-3.76-1.25-5.41a7.32,7.32,0,0,0-3,5M34.47,418.24c1.59,2.23,5.92.76,5.83-2a4,4,0,0,0-5.76,2.23m652,80.29c-.44,1.87,3,2.3,3.87.57s-.18-3.75-1.16-5.4l-3,5Z"/></g></g></g></svg>