<svg xmlns="http://www.w3.org/2000/svg" viewBox="0 0 124.61 158.43"><defs><style>.cls-1{fill:#fff;stroke:#ef3a5b;stroke-miterlimit:10;}</style></defs><title>Asset 1</title><g id="Layer_2" data-name="Layer 2"><g id="Layer_5" data-name="Layer 5"><path class="cls-1" d="M.5,116c0,29.11,0,29.11,28.49,29.11H75.29a1.49,1.49,0,0,0,1.49-1.46V101.54c0-2.21,0-2.21-1.68-2.94L49.8,86.88c-2.13-.94-2.13-.94-2.13,1.34v21.84c0,5.94,0,5.94-8.65,5.94-9.21,0-9.17,0-9.17-5.94V15C29.85,11.72,13.91.5,5,.5.51.5.5,4.79.5,5.47V116Z"/><path class="cls-1" d="M124.11,154.22V52.67c0-25.24.05-34.46-38.23-34.46s-38.2,7.69-38.2,34.46v12.6c0,1.06.34,1.1.86,1.34L74.64,79.18c2.15,1,2.15,1,2.13-1.34V52.16c0-3.86,0-4.75,8.87-4.75s9.07.88,9.07,4.65v92.41c0,3.09,0,3.09.86,4.15,7.42,5.58,13.31,9.31,24,9.31,4.53,0,4.53-3.71,4.53-3.71"/></g></g></svg>