<svg xmlns="http://www.w3.org/2000/svg" viewBox="0 0 1182.61 661.4"><defs><style>.cls-1{fill:#1976d2;}.cls-2{fill:#2196f3;}.cls-3{fill:#03a9f4;}</style></defs><title>Asset 3</title><g id="Layer_2" data-name="Layer 2"><g id="Layer_1-2" data-name="Layer 1"><g id="Shape_13" data-name="Shape 13"><path class="cls-1" d="M387.81,448.87c-11.94,21.53-30.4,40.93-48.4,58-38,36.12-63.84,69.46-129.58,86.39C126,614.88,44.27,539,64.83,455.45c30.09-122.2,143.85-92.2,170.31-73.57,0,0,20.44-22.41,31.71-34.53-57.78-71.87-217.73-37.71-255.2,78.31-39.75,123.11,31.22,186.93,77,211.1,47.29,24.94,101.23,32.12,170.71,1.61,61.74-27.11,93.2-76.67,135.07-127.69C390.93,490.2,388.18,469.6,387.81,448.87Z"/><path class="cls-2" d="M741.41,589.54s-45-31.31-54.73-38.52c-5,11.84-33,71.58-76.46,67.24-22.32-2.23-45.75-13.79-39.59-50.73,9.32-55.94,42.44-130.38,40.9-203.24-.65-30.84-13.95-61.12-53-60.36-52,1-134.06,142.24-134.06,142.24s17-45.17,37.06-90.22c34.38-77.09,74.39-156.69,74.07-241.09-.16-41.86-12.11-89.66-49.6-108.3C449.13-11.73,333.08-.68,326,156.51c-3.75,83.71,34,504.87,34,504.87S507,357.25,551,355.6c46.08-1.72-8.18,147.27-18.88,209.18-10.77,62.33,26.06,96.61,71.43,96.61C681.41,661.38,741.41,589.54,741.41,589.54ZM510.48,218.05l-.35.44M463.55,38.44c33.23,6.8,36.08,110.74,21.84,159.16-13.81,46.94-43,133.62-99,210.12-3.82-91.59-11.76-163.27-4.94-220.08C387.81,134.55,415.84,28.68,463.55,38.44Z"/><path class="cls-3" d="M926.81,536.6c-.61.92-58.23,70.75-98.77,73.72-52.06,3.81-63.47-25.59-74.53-45.53,27.92-18.15,105.58-46.74,134.86-104.21,44.18-86.73-11.3-147.47-55.64-150.35-55.25-3.58-97.38,29.69-121,71.71C688.66,423.06,675.9,464.4,686.67,551c8.81,70.86,60.44,111,129.95,110.08,57.72-.78,156.67-90.51,162.52-92.68C975,563.08,930,541.33,926.81,536.6ZM742.35,517.32s1.58-59.85,24.76-115.22c22.85-54.59,47.28-61.64,64-56.06,29.46,9.82,34.95,46.83,24.34,76.34C837.49,472.33,742.35,517.32,742.35,517.32Z"/><path class="cls-3" d="M1182,535.39c-.61.92-81.76,76.91-111.74,77.88-35.18,1.13-63.47-25.59-74.53-45.53,27.92-18.15,105.58-46.74,134.86-104.21,44.18-86.73-11.3-147.47-55.64-150.35-55.25-3.58-97.38,29.69-121,71.71C930.91,426,921.58,495.57,928.93,554c8.91,70.84,67.05,108.35,136.56,107.41C1123.21,660.6,1189.49,552.82,1182,535.39ZM984.6,520.27s1.58-59.85,24.76-115.22c22.85-54.59,47.28-61.64,64-56.06,29.46,9.82,34.95,46.83,24.34,76.34C1079.74,475.28,984.6,520.27,984.6,520.27Z"/></g></g></g></svg>